<mxfile host="app.diagrams.net" modified="2023-07-24T18:25:45.790Z" agent="Mozilla/5.0 (Windows NT 10.0; Win64; x64) AppleWebKit/537.36 (KHTML, like Gecko) Chrome/114.0.0.0 Safari/537.36" etag="ZDaieuaUW1z0Qx-tboLE" version="21.6.5" type="device">
  <diagram name="Página-1" id="soAyXk1Xbnx4IITwY8n4">
    <mxGraphModel dx="875" dy="484" grid="1" gridSize="10" guides="1" tooltips="1" connect="1" arrows="1" fold="1" page="1" pageScale="1" pageWidth="827" pageHeight="1169" math="0" shadow="0">
      <root>
        <mxCell id="0" />
        <mxCell id="1" parent="0" />
        <mxCell id="fV6-qimgqevTKQ20pn4D-1" value="Filme" style="rounded=0;whiteSpace=wrap;html=1;" vertex="1" parent="1">
          <mxGeometry x="180" y="200" width="120" height="60" as="geometry" />
        </mxCell>
        <mxCell id="fV6-qimgqevTKQ20pn4D-2" value="Você deverá criar a modelagem para o catálogo de filmes, observando a seguinte situação:&#xa;&#xa;&#xa;- um filme possui apenas um único gênero.&#xa;- um gênero pode definir mais de um filme." style="text;whiteSpace=wrap;" vertex="1" parent="1">
          <mxGeometry x="10" y="10" width="520" height="100" as="geometry" />
        </mxCell>
        <mxCell id="fV6-qimgqevTKQ20pn4D-10" style="edgeStyle=orthogonalEdgeStyle;rounded=0;orthogonalLoop=1;jettySize=auto;html=1;entryX=0.5;entryY=0;entryDx=0;entryDy=0;endArrow=none;endFill=0;" edge="1" parent="1" source="fV6-qimgqevTKQ20pn4D-3" target="fV6-qimgqevTKQ20pn4D-5">
          <mxGeometry relative="1" as="geometry" />
        </mxCell>
        <mxCell id="fV6-qimgqevTKQ20pn4D-12" style="edgeStyle=orthogonalEdgeStyle;rounded=0;orthogonalLoop=1;jettySize=auto;html=1;entryX=0.5;entryY=1;entryDx=0;entryDy=0;endArrow=none;endFill=0;" edge="1" parent="1" source="fV6-qimgqevTKQ20pn4D-3" target="fV6-qimgqevTKQ20pn4D-1">
          <mxGeometry relative="1" as="geometry" />
        </mxCell>
        <mxCell id="fV6-qimgqevTKQ20pn4D-3" value="Possui" style="rhombus;whiteSpace=wrap;html=1;" vertex="1" parent="1">
          <mxGeometry x="200" y="310" width="80" height="80" as="geometry" />
        </mxCell>
        <mxCell id="fV6-qimgqevTKQ20pn4D-21" style="edgeStyle=orthogonalEdgeStyle;rounded=0;orthogonalLoop=1;jettySize=auto;html=1;entryX=0;entryY=0.5;entryDx=0;entryDy=0;endArrow=none;endFill=0;" edge="1" parent="1" source="fV6-qimgqevTKQ20pn4D-5" target="fV6-qimgqevTKQ20pn4D-20">
          <mxGeometry relative="1" as="geometry" />
        </mxCell>
        <mxCell id="fV6-qimgqevTKQ20pn4D-5" value="Gênero" style="rounded=0;whiteSpace=wrap;html=1;" vertex="1" parent="1">
          <mxGeometry x="180" y="440" width="120" height="60" as="geometry" />
        </mxCell>
        <mxCell id="fV6-qimgqevTKQ20pn4D-7" value="1" style="text;whiteSpace=wrap;" vertex="1" parent="1">
          <mxGeometry x="243" y="414" width="10" height="20" as="geometry" />
        </mxCell>
        <mxCell id="fV6-qimgqevTKQ20pn4D-8" value="N" style="text;whiteSpace=wrap;" vertex="1" parent="1">
          <mxGeometry x="241" y="260" width="10" height="20" as="geometry" />
        </mxCell>
        <mxCell id="fV6-qimgqevTKQ20pn4D-22" style="edgeStyle=orthogonalEdgeStyle;rounded=0;orthogonalLoop=1;jettySize=auto;html=1;endArrow=none;endFill=0;" edge="1" parent="1" source="fV6-qimgqevTKQ20pn4D-18" target="fV6-qimgqevTKQ20pn4D-1">
          <mxGeometry relative="1" as="geometry" />
        </mxCell>
        <mxCell id="fV6-qimgqevTKQ20pn4D-18" value="Lançamento" style="ellipse;whiteSpace=wrap;html=1;" vertex="1" parent="1">
          <mxGeometry x="380" y="180" width="120" height="40" as="geometry" />
        </mxCell>
        <mxCell id="fV6-qimgqevTKQ20pn4D-23" style="edgeStyle=orthogonalEdgeStyle;rounded=0;orthogonalLoop=1;jettySize=auto;html=1;endArrow=none;endFill=0;" edge="1" parent="1" source="fV6-qimgqevTKQ20pn4D-19">
          <mxGeometry relative="1" as="geometry">
            <mxPoint x="340" y="220" as="targetPoint" />
          </mxGeometry>
        </mxCell>
        <mxCell id="fV6-qimgqevTKQ20pn4D-19" value="Nome" style="ellipse;whiteSpace=wrap;html=1;" vertex="1" parent="1">
          <mxGeometry x="380" y="240" width="120" height="40" as="geometry" />
        </mxCell>
        <mxCell id="fV6-qimgqevTKQ20pn4D-20" value="Nome" style="ellipse;whiteSpace=wrap;html=1;" vertex="1" parent="1">
          <mxGeometry x="370" y="450" width="120" height="40" as="geometry" />
        </mxCell>
      </root>
    </mxGraphModel>
  </diagram>
</mxfile>
